<svg width="300" height="300" viewBox="0 0 300 300" fill="none" xmlns="http://www.w3.org/2000/svg">
<rect width="300" height="300" rx="45" fill="black"/>
<path fill-rule="evenodd" clip-rule="evenodd" d="M114.268 71.5709C114.466 70.9624 115.033 70.5504 115.673 70.5504H118.453H153.856H232.646C233.65 70.5504 234.361 71.529 234.051 72.4832L224.895 100.708C224.697 101.316 224.13 101.729 223.49 101.729H144.266C143.635 101.729 143.073 102.131 142.869 102.728L133.475 130.239C133.148 131.197 133.861 132.193 134.873 132.193H183.06C184.068 132.193 184.78 133.181 184.461 134.137L175.059 162.361C174.858 162.965 174.294 163.372 173.658 163.372H87.7506C87.7505 163.372 87.7505 163.372 87.7505 163.371V163.371C87.7505 163.371 87.7505 163.371 87.7504 163.371H86.0907C85.2757 163.371 84.6979 162.576 84.9497 161.801L114.268 71.5709Z" fill="white"/>
<path d="M74.2485 194.758C74.4463 194.15 75.0134 193.738 75.6532 193.738H192.656C193.66 193.738 194.372 194.719 194.06 195.673L184.85 223.898C184.651 224.505 184.085 224.916 183.445 224.916H66.4781C65.4746 224.916 64.7632 223.937 65.0734 222.983L74.2485 194.758Z" fill="white"/>
</svg>
